<svg xmlns="http://www.w3.org/2000/svg" width="34" height="34" viewBox="0 0 34 34">
    <defs>
        <linearGradient id="a" x1="50%" x2="50%" y1="0%" y2="99.029%">
            <stop offset="0%" stop-color="#73398D"/>
            <stop offset="100%" stop-color="#594A95"/>
        </linearGradient>
    </defs>
    <g fill="none" fill-rule="evenodd">
        <circle cx="17" cy="17" r="17" fill="url(#a)" fill-rule="nonzero"/>
        <path fill="#FFF" d="M15.379 18.515c0 1.857-1.106 3.052-3.09 3.052-.712 0-1.373-.14-1.882-.432-.585-.33-.585-.75-.585-1.183v-6.42c0-.459.28-.688.852-.688s.852.23.852.687v2.441c.318-.216.738-.317 1.22-.317 1.552 0 2.633 1.03 2.633 2.86zm-3.853 1.488c.216.127.483.19.776.19.826 0 1.335-.559 1.335-1.563 0-1.017-.522-1.602-1.31-1.602a1.31 1.31 0 0 0-.8.254v2.721zm7.038-6.027c0 .585-.42.992-1.005.992-.584 0-1.004-.407-1.004-.992s.42-.979 1.004-.979c.585 0 1.005.394 1.005.98zm-.153 2.365v4.514c0 .458-.28.687-.852.687s-.851-.23-.851-.687v-4.514c0-.458.28-.686.851-.686.573 0 .852.228.852.686zm5.156 3.675c.47 0 .61.496.61.775 0 .179-.063.357-.304.496-.28.166-.763.28-1.26.28-.915 0-1.461-.369-1.741-.877-.255-.458-.28-1.005-.28-1.59v-1.907h-.445c-.458 0-.687-.229-.687-.712s.23-.712.687-.712h.445V14.65c0-.458.28-.687.852-.687s.852.23.852.687v1.119h1.068c.458 0 .687.229.687.712s-.23.712-.687.712h-1.068V19.1c0 .23 0 .56.114.776.09.178.255.254.47.254.14 0 .28-.038.395-.063.102-.026.19-.051.292-.051z"/>
    </g>
</svg>
